HIERARCHY
ROOT Hips
{
	OFFSET	0.00	0.00	0.00
	CHANNELS 6 Xposition Yposition Zposition Zrotation Xrotation Yrotation
	JOINT Spine
	{
		OFFSET	 0.00	0.01	 0.00
		CHANNELS 3 Zrotation Xrotation Yrotation
		JOINT Spine1
		{
			OFFSET	 0.00	 2.45913012437421	 0.00
			CHANNELS 3 Zrotation Xrotation Yrotation
            JOINT Neck
            {
                OFFSET	 0.00	 2.48462964506057	 0.00
                CHANNELS 3 Zrotation Xrotation Yrotation
                JOINT Head
                {
                    OFFSET	 0.00	 0.927524780924562	 0.00
                    CHANNELS 3 Zrotation Xrotation Yrotation
                    End Site 
                    {
                        OFFSET	 0.00	 1.14999962169752	 0.00
                    }
                }
            }
			JOINT LeftShoulder
			{
				OFFSET	 0.00	 2.48462964506057	 0.00
				CHANNELS 3 Zrotation Xrotation Yrotation
				JOINT LeftUpArm
				{
					OFFSET	 0.00	 1.24881979654096	 0.00
					CHANNELS 3 Zrotation Xrotation Yrotation
					JOINT LeftForeArm
					{
						OFFSET	 0.00	2.59758046908119	 0.00
						CHANNELS 3 Zrotation Xrotation Yrotation
						JOINT LeftHand
						{
							OFFSET	 0.00	2.45542024364365	 0.00
							CHANNELS 3 Zrotation Xrotation Yrotation
							JOINT LeftHandThumb 
							{
								OFFSET	 0.00	0.00	 0.00
								CHANNELS 3 Zrotation Xrotation Yrotation
								End Site
								{
									OFFSET	 0.00	0.00	1.00000003353624
								}
							}
							JOINT L_Wrist_End 
							{
								OFFSET	 0.00	0.99999967115358	 0.00
								CHANNELS 3 Zrotation Xrotation Yrotation
								End Site 
								{
									OFFSET	 0.00	 0.00	 0.00
								}
							}
						}
					}
				}
			}
			JOINT RightShoulder
			{
				OFFSET	 0.00	 2.48462964506057	 0.00
				CHANNELS 3 Zrotation Xrotation Yrotation
				JOINT RightUpArm
				{
					OFFSET	 0.00	 1.24881979654096	 0.00
					CHANNELS 3 Zrotation Xrotation Yrotation
					JOINT RightForeArm
					{
						OFFSET	 0.00	2.59758046908119	 0.00
						CHANNELS 3 Zrotation Xrotation Yrotation
						JOINT RightHand
						{
							OFFSET	 0.00	2.45542024364365	 0.00
							CHANNELS 3 Zrotation Xrotation Yrotation
							JOINT RightHandThumb 
							{
								OFFSET	 0.00	0.00	 0.00
								CHANNELS 3 Zrotation Xrotation Yrotation
								End Site
								{
									OFFSET	 0.00	0.00	1.00000003353624
								}
							}
							JOINT R_Wrist_End 
							{
								OFFSET	 0.00	0.99999967115358	 0.00
								CHANNELS 3 Zrotation Xrotation Yrotation
								End Site 
								{
									OFFSET	 0.00	 0.00	 0.00
								}
							}
						}
					}
				}
			}
		}
	}
	JOINT LeftUpLeg
	{
		OFFSET	 1.2719394002717	 0.00	 0.00
		CHANNELS 3 Zrotation Xrotation Yrotation
		JOINT LeftLowLeg
		{
			OFFSET	 0.00	-4.3429100912261	 0.00
			CHANNELS 3 Zrotation Xrotation Yrotation
			JOINT LeftFoot
			{
				OFFSET	 0.00	-4.48767017425826	 0.00
				CHANNELS 3 Zrotation Xrotation Yrotation
				JOINT LeftToeBase
                {
                    OFFSET	 0.00	0.00	 1.51507020887566
                    CHANNELS 3 Zrotation Xrotation Yrotation
                    End Site 
                    {
                        OFFSET	 0.00	0.00	 0.75000010571191
                    }
                }
			}
		}
	}
	JOINT RightUpLeg
	{
		OFFSET	 -1.2719393604653	 0.00	 0.00
		CHANNELS 3 Zrotation Xrotation Yrotation
		JOINT RightLowLeg
		{
			OFFSET	 0.00	-4.3429100912261	 0.00
			CHANNELS 3 Zrotation Xrotation Yrotation
			JOINT RightFoot
			{
				OFFSET	 0.00	-4.48767017425826	 0.00
				CHANNELS 3 Zrotation Xrotation Yrotation
				JOINT RightToeBase
                {
                    OFFSET	 0.00	0.00	 1.51507020887566
                    CHANNELS 3 Zrotation Xrotation Yrotation
                    End Site 
                    {
                        OFFSET	 0.00	0.00	 0.749999965609858
                    }
                }   
			}
		}
	}
}
MOTION 
Frames:	11 
Frame Time: 0.02 
 1.90906005859375 11.905899658203126 9.824550170898437 -139.588 84.4711 141.843 2.51227 -6.88047 -1.73692 -0.309442 3.23446 -1.91205 -0.699627 36.3002 2.02425 11.9447 -47.2767 7.38848 -89.38612 -15.0238 -4.95435 -8.11041 5.90539 -29.2526 0.0 21.3537 0.0 29.12 -9.32543 24.7052 0.0 0.0 0.0 0.0 0.0 0.0 97.85708 -12.8614 1.27005 6.10532 2.75699 29.0356 0.0 19.5273 0.0 -15.5841 -0.554516 -25.2286 0.0 0.0 0.0 0.0 0.0 0.0 2.89081 -4.22181 -0.215733 0.0 8.55747 0.0 -4.3116 6.7984695 -0.705061 0.0 -39.5924 0.0 3.30522 -2.941 7.35892 0.0 8.49637 0.0 7.98319 9.5115795 -6.8023 0.0 -27.605099 0.0 
  1.907969970703125 11.90699951171875 9.82469970703125 -139.641 84.4656 141.873 2.505 -6.87014 -1.74877 -0.307243 3.27534 -1.92255 -0.623994 36.3413 1.92774 11.9098 -47.3264 7.4697 -89.42537 -15.1369 -5.01923 -8.15283 6.04561 -29.2676 0.0 21.3415 0.0 29.0691 -9.41498 24.666 0.0 0.0 0.0 0.0 0.0 0.0 97.87771 -12.856 1.2657 6.19958 2.77349 29.155 0.0 19.5633 0.0 -15.6201 -0.643242 -25.4573 0.0 0.0 0.0 0.0 0.0 0.0 2.89616 -4.22129 -0.220086 0.0 8.53437 0.0 -4.32863 6.80989 -0.677489 0.0 -39.583298 0.0 3.30969 -2.95978 7.35969 0.0 8.4977 0.0 8.03392 9.4989395 -6.76984 0.0 -27.5296 0.0 
  1.9067900085449219 11.908199462890625 9.824710083007812 -139.63 84.4681 141.855 2.49867 -6.84722 -1.76645 -0.290836 3.31774 -1.93907 -0.614716 36.3416 1.88166 11.883 -47.3782 7.43921 -89.40595 -15.0819 -5.05727 -8.27203 5.92482 -29.3882 0.0 21.4481 0.0 28.7792 -9.56719 24.9185 0.0 0.0 0.0 0.0 0.0 0.0 97.87524 -12.9026 1.27336 6.27876 2.87089 29.1691 0.0 19.5563 0.0 -15.5335 -0.864146 -25.3795 0.0 0.0 0.0 0.0 0.0 0.0 2.90329 -4.22211 -0.193365 0.0 8.53023 0.0 -4.32726 6.8158903 -0.690462 0.0 -39.5785 0.0 3.31728 -2.97226 7.35788 0.0 8.51128 0.0 8.025 9.50043 -6.76429 0.0 -27.527199 0.0 
  1.9054200744628906 11.909599609375 9.8247802734375 -139.606 84.4757 141.819 2.48561 -6.82112 -1.77435 -0.280451 3.38122 -1.94444 -0.672613 36.2773 1.96511 11.9121 -47.4086 7.43707 -89.43211 -15.0597 -5.03907 -8.27824 5.92911 -29.2253 0.0 21.3569 0.0 28.8191 -9.59147 24.8634 0.0 0.0 0.0 0.0 0.0 0.0 97.91288 -12.8839 1.26253 6.28574 2.83116 29.0988 0.0 19.4873 0.0 -15.3485 -0.718329 -25.349 0.0 0.0 0.0 0.0 0.0 0.0 2.90992 -4.21788 -0.171471 0.0 8.52329 0.0 -4.34014 6.82543 -0.701749 0.0 -39.570602 0.0 3.32669 -2.98935 7.41949 0.0 8.53952 0.0 8.04457 9.49345 -6.80119 0.0 -27.5273 0.0 
  1.9039599609375 11.911099853515625 9.82489013671875 -139.32 84.5167 141.527 2.46009 -6.75394 -1.78655 -0.248354 3.42657 -1.95189 -0.686465 36.2724 1.97426 11.9087 -47.4427 7.43381 -89.43301 -14.9827 -5.02249 -8.33895 5.8558 -29.1842 0.0 21.3059 0.0 28.805 -9.6197 24.8012 0.0 0.0 0.0 0.0 0.0 0.0 97.92944 -12.8784 1.25793 6.303 2.83004 29.0336 0.0 19.4631 0.0 -15.3607 -0.82133 -25.386 0.0 0.0 0.0 0.0 0.0 0.0 2.91716 -4.18019 -0.114935 0.0 8.52807 0.0 -4.32869 6.84023 -0.739984 0.0 -39.5965 0.0 3.33545 -2.96827 7.47574 0.0 8.57353 0.0 8.05846 9.48962 -6.83908 0.0 -27.5261 0.0 
  1.903179931640625 11.91280029296875 9.824959716796876 -139.263 84.5205 141.471 2.46273 -6.72397 -1.79244 -0.248788 3.45968 -1.95844 -0.697772 36.2807 1.99545 11.9488 -47.4845 7.44913 -89.40137 -14.9612 -5.04233 -8.4721 5.87775 -29.369 0.0 21.3328 0.0 28.6914 -9.81208 24.9441 0.0 0.0 0.0 0.0 0.0 0.0 97.93688 -12.8292 1.2146 6.34779 2.73776 29.1045 0.0 19.4696 0.0 -15.2947 -0.774846 -25.6499 0.0 0.0 0.0 0.0 0.0 0.0 2.92253 -4.19034 -0.120157 0.0 8.53692 0.0 -4.33255 6.8490105 -0.734824 0.0 -39.6155 0.0 3.3426 -2.97848 7.47974 0.0 8.5837 0.0 8.06193 9.495 -6.84325 0.0 -27.5418 0.0 
  1.9028799438476562 11.914100341796875 9.824970092773437 -139.123 84.5397 141.348 2.46442 -6.68716 -1.80608 -0.242905 3.52223 -1.97255 -0.694714 36.2973 2.00858 11.9816 -47.5392 7.50632 -89.3916 -14.9613 -5.06152 -8.59845 5.87525 -29.8136 0.0 21.4741 0.0 28.1715 -10.0079 24.9833 0.0 0.0 0.0 0.0 0.0 0.0 97.92997 -12.8404 1.23248 6.40604 2.7262 29.2284 0.0 19.4884 0.0 -15.3184 -0.943661 -25.6322 0.0 0.0 0.0 0.0 0.0 0.0 2.91941 -4.18567 -0.143088 0.0 8.55017 0.0 -4.32937 6.85396 -0.721696 0.0 -39.5937 0.0 3.34228 -2.97023 7.47674 0.0 8.60182 0.0 8.06893 9.48962 -6.84838 0.0 -27.560501 0.0 
  1.9023599243164062 11.915899658203125 9.824829711914063 -139.065 84.5475 141.289 2.47378 -6.63195 -1.80656 -0.256485 3.52008 -1.97521 -0.665655 36.2823 1.98538 12.0322 -47.5371 7.52051 -89.40099 -14.9348 -4.99339 -8.60504 5.88452 -29.7756 0.0 21.4847 0.0 28.215 -10.1229 25.107 0.0 0.0 0.0 0.0 0.0 0.0 97.93704 -12.8382 1.21136 6.42153 2.68655 29.3075 0.0 19.4801 0.0 -15.3292 -0.94749 -25.6541 0.0 0.0 0.0 0.0 0.0 0.0 2.92124 -4.19792 -0.143221 0.0 8.57213 0.0 -4.33077 6.8492203 -0.719523 0.0 -39.6013 0.0 3.34577 -2.98304 7.48071 0.0 8.62375 0.0 8.07751 9.48469 -6.8484 0.0 -27.5457 0.0 
  1.9020399475097656 11.9168994140625 9.824860229492188 -138.999 84.5508 141.231 2.48758 -6.59815 -1.81637 -0.27003 3.53065 -1.98797 -0.644259 36.2948 1.97687 12.0673 -47.5567 7.56657 -89.40936 -14.9321 -4.95851 -8.59745 5.86807 -29.8327 0.0 21.5072 0.0 28.0419 -10.1002 25.2149 0.0 0.0 0.0 0.0 0.0 0.0 97.93342 -12.8279 1.19587 6.43647 2.6494 29.3396 0.0 19.4962 0.0 -15.3654 -0.983063 -25.7323 0.0 0.0 0.0 0.0 0.0 0.0 2.92651 -4.20218 -0.152209 0.0 8.57747 0.0 -4.34194 6.84995 -0.727273 0.0 -39.5962 0.0 3.35164 -2.99144 7.48891 0.0 8.64313 0.0 8.08676 9.48005 -6.85863 0.0 -27.5298 0.0 
  1.9015199279785155 11.918399658203125 9.824910278320312 -139.05 84.5398 141.274 2.5013 -6.57178 -1.81812 -0.279415 3.56429 -1.99243 -0.584518 36.2756 1.93571 12.1025 -47.5186 7.62871 -89.42042 -14.9273 -4.94589 -8.60352 5.85668 -29.8362 0.0 21.561 0.0 28.0066 -10.1392 25.235 0.0 0.0 0.0 0.0 0.0 0.0 97.93511 -12.843 1.22918 6.44324 2.61433 29.3427 0.0 19.5041 0.0 -15.3933 -0.876491 -25.7 0.0 0.0 0.0 0.0 0.0 0.0 2.93561 -4.22828 -0.118413 0.0 8.58991 0.0 -4.33635 6.8525105 -0.751477 0.0 -39.6058 0.0 3.36058 -3.01486 7.52078 0.0 8.64503 0.0 8.08308 9.486179 -6.88724 0.0 -27.5338 0.0 
  1.9010200500488281 11.919200439453125 9.82489013671875 -139.245 84.5249 141.469 2.5023 -6.55496 -1.83408 -0.288086 3.55426 -2.00895 -0.572986 36.292 1.94555 12.1384 -47.4918 7.6556 -89.424255 -14.9326 -4.98099 -8.60372 5.82453 -29.6938 0.0 21.5562 0.0 28.138 -10.0853 25.0722 0.0 0.0 0.0 0.0 0.0 0.0 97.91522 -12.8292 1.21484 6.47734 2.58443 29.4142 0.0 19.5359 0.0 -15.4435 -0.869979 -25.5459 0.0 0.0 0.0 0.0 0.0 0.0 2.93128 -4.25838 -0.101451 0.0 8.59408 0.0 -4.32267 6.8552704 -0.752137 0.0 -39.5952 0.0 3.35843 -3.02153 7.50962 0.0 8.60237 0.0 8.00982 9.4971 -6.89447 0.0 -27.5391 0.0 
